<?xml version="1.0" encoding="utf-8" standalone="no"?>
<!DOCTYPE svg PUBLIC "-//W3C//DTD SVG 1.1//EN"
  "http://www.w3.org/Graphics/SVG/1.1/DTD/svg11.dtd">
<!-- Created with matplotlib (https://matplotlib.org/) -->
<svg height="381.480625pt" version="1.1" viewBox="0 0 372.103125 381.480625" width="372.103125pt" xmlns="http://www.w3.org/2000/svg" xmlns:xlink="http://www.w3.org/1999/xlink">
 <metadata>
  <rdf:RDF xmlns:cc="http://creativecommons.org/ns#" xmlns:dc="http://purl.org/dc/elements/1.1/" xmlns:rdf="http://www.w3.org/1999/02/22-rdf-syntax-ns#">
   <cc:Work>
    <dc:type rdf:resource="http://purl.org/dc/dcmitype/StillImage"/>
    <dc:date>2020-12-08T14:58:48.826425</dc:date>
    <dc:format>image/svg+xml</dc:format>
    <dc:creator>
     <cc:Agent>
      <dc:title>Matplotlib v3.3.3, https://matplotlib.org/</dc:title>
     </cc:Agent>
    </dc:creator>
   </cc:Work>
  </rdf:RDF>
 </metadata>
 <defs>
  <style type="text/css">*{stroke-linecap:butt;stroke-linejoin:round;}</style>
 </defs>
 <g id="figure_1">
  <g id="patch_1">
   <path d="M 0 381.480625 
L 372.103125 381.480625 
L 372.103125 0 
L 0 0 
z
" style="fill:none;"/>
  </g>
  <g id="axes_1">
   <g id="patch_2">
    <path d="M 30.103125 224.64 
L 364.903125 224.64 
L 364.903125 7.2 
L 30.103125 7.2 
z
" style="fill:#ffffff;"/>
   </g>
   <g id="patch_3">
    <path clip-path="url(#p709482bfbf)" d="M 37.712216 224.64 
L 52.930398 224.64 
L 52.930398 17.554286 
L 37.712216 17.554286 
z
" style="fill:#1f77b4;"/>
   </g>
   <g id="patch_4">
    <path clip-path="url(#p709482bfbf)" d="M 68.14858 224.64 
L 83.366761 224.64 
L 83.366761 62.578875 
L 68.14858 62.578875 
z
" style="fill:#1f77b4;"/>
   </g>
   <g id="patch_5">
    <path clip-path="url(#p709482bfbf)" d="M 98.584943 224.64 
L 113.803125 224.64 
L 113.803125 214.091643 
L 98.584943 214.091643 
z
" style="fill:#1f77b4;"/>
   </g>
   <g id="patch_6">
    <path clip-path="url(#p709482bfbf)" d="M 129.021307 224.64 
L 144.239489 224.64 
L 144.239489 214.091643 
L 129.021307 214.091643 
z
" style="fill:#1f77b4;"/>
   </g>
   <g id="patch_7">
    <path clip-path="url(#p709482bfbf)" d="M 159.45767 224.64 
L 174.675852 224.64 
L 174.675852 219.069006 
L 159.45767 219.069006 
z
" style="fill:#1f77b4;"/>
   </g>
   <g id="patch_8">
    <path clip-path="url(#p709482bfbf)" d="M 189.894034 224.64 
L 205.112216 224.64 
L 205.112216 222.630789 
L 189.894034 222.630789 
z
" style="fill:#1f77b4;"/>
   </g>
   <g id="patch_9">
    <path clip-path="url(#p709482bfbf)" d="M 220.330398 224.64 
L 235.54858 224.64 
L 235.54858 224.183361 
L 220.330398 224.183361 
z
" style="fill:#1f77b4;"/>
   </g>
   <g id="patch_10">
    <path clip-path="url(#p709482bfbf)" d="M 250.766761 224.64 
L 265.984943 224.64 
L 265.984943 224.274689 
L 250.766761 224.274689 
z
" style="fill:#1f77b4;"/>
   </g>
   <g id="patch_11">
    <path clip-path="url(#p709482bfbf)" d="M 281.203125 224.64 
L 296.421307 224.64 
L 296.421307 224.548672 
L 281.203125 224.548672 
z
" style="fill:#1f77b4;"/>
   </g>
   <g id="patch_12">
    <path clip-path="url(#p709482bfbf)" d="M 311.639489 224.64 
L 326.85767 224.64 
L 326.85767 224.548672 
L 311.639489 224.548672 
z
" style="fill:#1f77b4;"/>
   </g>
   <g id="patch_13">
    <path clip-path="url(#p709482bfbf)" d="M 342.075852 224.64 
L 357.294034 224.64 
L 357.294034 224.548672 
L 342.075852 224.548672 
z
" style="fill:#1f77b4;"/>
   </g>
   <g id="matplotlib.axis_1">
    <g id="xtick_1">
     <g id="line2d_1">
      <defs>
       <path d="M 0 0 
L 0 3.5 
" id="m9f0a759953" style="stroke:#000000;stroke-width:0.8;"/>
      </defs>
      <g>
       <use style="stroke:#000000;stroke-width:0.8;" x="45.321307" xlink:href="#m9f0a759953" y="224.64"/>
      </g>
     </g>
     <g id="text_1">
      <!-- ESSENCE -->
      <g transform="translate(48.080682 277.757187)rotate(-90)scale(0.1 -0.1)">
       <defs>
        <path d="M 9.8125 72.90625 
L 55.90625 72.90625 
L 55.90625 64.59375 
L 19.671875 64.59375 
L 19.671875 43.015625 
L 54.390625 43.015625 
L 54.390625 34.71875 
L 19.671875 34.71875 
L 19.671875 8.296875 
L 56.78125 8.296875 
L 56.78125 0 
L 9.8125 0 
z
" id="DejaVuSans-69"/>
        <path d="M 53.515625 70.515625 
L 53.515625 60.890625 
Q 47.90625 63.578125 42.921875 64.890625 
Q 37.9375 66.21875 33.296875 66.21875 
Q 25.25 66.21875 20.875 63.09375 
Q 16.5 59.96875 16.5 54.203125 
Q 16.5 49.359375 19.40625 46.890625 
Q 22.3125 44.4375 30.421875 42.921875 
L 36.375 41.703125 
Q 47.40625 39.59375 52.65625 34.296875 
Q 57.90625 29 57.90625 20.125 
Q 57.90625 9.515625 50.796875 4.046875 
Q 43.703125 -1.421875 29.984375 -1.421875 
Q 24.8125 -1.421875 18.96875 -0.25 
Q 13.140625 0.921875 6.890625 3.21875 
L 6.890625 13.375 
Q 12.890625 10.015625 18.65625 8.296875 
Q 24.421875 6.59375 29.984375 6.59375 
Q 38.421875 6.59375 43.015625 9.90625 
Q 47.609375 13.234375 47.609375 19.390625 
Q 47.609375 24.75 44.3125 27.78125 
Q 41.015625 30.8125 33.5 32.328125 
L 27.484375 33.5 
Q 16.453125 35.6875 11.515625 40.375 
Q 6.59375 45.0625 6.59375 53.421875 
Q 6.59375 63.09375 13.40625 68.65625 
Q 20.21875 74.21875 32.171875 74.21875 
Q 37.3125 74.21875 42.625 73.28125 
Q 47.953125 72.359375 53.515625 70.515625 
z
" id="DejaVuSans-83"/>
        <path d="M 9.8125 72.90625 
L 23.09375 72.90625 
L 55.421875 11.921875 
L 55.421875 72.90625 
L 64.984375 72.90625 
L 64.984375 0 
L 51.703125 0 
L 19.390625 60.984375 
L 19.390625 0 
L 9.8125 0 
z
" id="DejaVuSans-78"/>
        <path d="M 64.40625 67.28125 
L 64.40625 56.890625 
Q 59.421875 61.53125 53.78125 63.8125 
Q 48.140625 66.109375 41.796875 66.109375 
Q 29.296875 66.109375 22.65625 58.46875 
Q 16.015625 50.828125 16.015625 36.375 
Q 16.015625 21.96875 22.65625 14.328125 
Q 29.296875 6.6875 41.796875 6.6875 
Q 48.140625 6.6875 53.78125 8.984375 
Q 59.421875 11.28125 64.40625 15.921875 
L 64.40625 5.609375 
Q 59.234375 2.09375 53.4375 0.328125 
Q 47.65625 -1.421875 41.21875 -1.421875 
Q 24.65625 -1.421875 15.125 8.703125 
Q 5.609375 18.84375 5.609375 36.375 
Q 5.609375 53.953125 15.125 64.078125 
Q 24.65625 74.21875 41.21875 74.21875 
Q 47.75 74.21875 53.53125 72.484375 
Q 59.328125 70.75 64.40625 67.28125 
z
" id="DejaVuSans-67"/>
       </defs>
       <use xlink:href="#DejaVuSans-69"/>
       <use x="63.183594" xlink:href="#DejaVuSans-83"/>
       <use x="126.660156" xlink:href="#DejaVuSans-83"/>
       <use x="190.136719" xlink:href="#DejaVuSans-69"/>
       <use x="253.320312" xlink:href="#DejaVuSans-78"/>
       <use x="328.125" xlink:href="#DejaVuSans-67"/>
       <use x="397.949219" xlink:href="#DejaVuSans-69"/>
      </g>
     </g>
    </g>
    <g id="xtick_2">
     <g id="line2d_2">
      <g>
       <use style="stroke:#000000;stroke-width:0.8;" x="75.75767" xlink:href="#m9f0a759953" y="224.64"/>
      </g>
     </g>
     <g id="text_2">
      <!-- DIESEL -->
      <g transform="translate(78.517045 266.847812)rotate(-90)scale(0.1 -0.1)">
       <defs>
        <path d="M 19.671875 64.796875 
L 19.671875 8.109375 
L 31.59375 8.109375 
Q 46.6875 8.109375 53.6875 14.9375 
Q 60.6875 21.78125 60.6875 36.53125 
Q 60.6875 51.171875 53.6875 57.984375 
Q 46.6875 64.796875 31.59375 64.796875 
z
M 9.8125 72.90625 
L 30.078125 72.90625 
Q 51.265625 72.90625 61.171875 64.09375 
Q 71.09375 55.28125 71.09375 36.53125 
Q 71.09375 17.671875 61.125 8.828125 
Q 51.171875 0 30.078125 0 
L 9.8125 0 
z
" id="DejaVuSans-68"/>
        <path d="M 9.8125 72.90625 
L 19.671875 72.90625 
L 19.671875 0 
L 9.8125 0 
z
" id="DejaVuSans-73"/>
        <path d="M 9.8125 72.90625 
L 19.671875 72.90625 
L 19.671875 8.296875 
L 55.171875 8.296875 
L 55.171875 0 
L 9.8125 0 
z
" id="DejaVuSans-76"/>
       </defs>
       <use xlink:href="#DejaVuSans-68"/>
       <use x="77.001953" xlink:href="#DejaVuSans-73"/>
       <use x="106.494141" xlink:href="#DejaVuSans-69"/>
       <use x="169.677734" xlink:href="#DejaVuSans-83"/>
       <use x="233.154297" xlink:href="#DejaVuSans-69"/>
       <use x="296.337891" xlink:href="#DejaVuSans-76"/>
      </g>
     </g>
    </g>
    <g id="xtick_3">
     <g id="line2d_3">
      <g>
       <use style="stroke:#000000;stroke-width:0.8;" x="106.194034" xlink:href="#m9f0a759953" y="224.64"/>
      </g>
     </g>
     <g id="text_3">
      <!-- ELECTRIQUE -->
      <g transform="translate(108.953409 294.347812)rotate(-90)scale(0.1 -0.1)">
       <defs>
        <path d="M -0.296875 72.90625 
L 61.375 72.90625 
L 61.375 64.59375 
L 35.5 64.59375 
L 35.5 0 
L 25.59375 0 
L 25.59375 64.59375 
L -0.296875 64.59375 
z
" id="DejaVuSans-84"/>
        <path d="M 44.390625 34.1875 
Q 47.5625 33.109375 50.5625 29.59375 
Q 53.5625 26.078125 56.59375 19.921875 
L 66.609375 0 
L 56 0 
L 46.6875 18.703125 
Q 43.0625 26.03125 39.671875 28.421875 
Q 36.28125 30.8125 30.421875 30.8125 
L 19.671875 30.8125 
L 19.671875 0 
L 9.8125 0 
L 9.8125 72.90625 
L 32.078125 72.90625 
Q 44.578125 72.90625 50.734375 67.671875 
Q 56.890625 62.453125 56.890625 51.90625 
Q 56.890625 45.015625 53.6875 40.46875 
Q 50.484375 35.9375 44.390625 34.1875 
z
M 19.671875 64.796875 
L 19.671875 38.921875 
L 32.078125 38.921875 
Q 39.203125 38.921875 42.84375 42.21875 
Q 46.484375 45.515625 46.484375 51.90625 
Q 46.484375 58.296875 42.84375 61.546875 
Q 39.203125 64.796875 32.078125 64.796875 
z
" id="DejaVuSans-82"/>
        <path d="M 39.40625 66.21875 
Q 28.65625 66.21875 22.328125 58.203125 
Q 16.015625 50.203125 16.015625 36.375 
Q 16.015625 22.609375 22.328125 14.59375 
Q 28.65625 6.59375 39.40625 6.59375 
Q 50.140625 6.59375 56.421875 14.59375 
Q 62.703125 22.609375 62.703125 36.375 
Q 62.703125 50.203125 56.421875 58.203125 
Q 50.140625 66.21875 39.40625 66.21875 
z
M 53.21875 1.3125 
L 66.21875 -12.890625 
L 54.296875 -12.890625 
L 43.5 -1.21875 
Q 41.890625 -1.3125 41.03125 -1.359375 
Q 40.1875 -1.421875 39.40625 -1.421875 
Q 24.03125 -1.421875 14.8125 8.859375 
Q 5.609375 19.140625 5.609375 36.375 
Q 5.609375 53.65625 14.8125 63.9375 
Q 24.03125 74.21875 39.40625 74.21875 
Q 54.734375 74.21875 63.90625 63.9375 
Q 73.09375 53.65625 73.09375 36.375 
Q 73.09375 23.6875 67.984375 14.640625 
Q 62.890625 5.609375 53.21875 1.3125 
z
" id="DejaVuSans-81"/>
        <path d="M 8.6875 72.90625 
L 18.609375 72.90625 
L 18.609375 28.609375 
Q 18.609375 16.890625 22.84375 11.734375 
Q 27.09375 6.59375 36.625 6.59375 
Q 46.09375 6.59375 50.34375 11.734375 
Q 54.59375 16.890625 54.59375 28.609375 
L 54.59375 72.90625 
L 64.5 72.90625 
L 64.5 27.390625 
Q 64.5 13.140625 57.4375 5.859375 
Q 50.390625 -1.421875 36.625 -1.421875 
Q 22.796875 -1.421875 15.734375 5.859375 
Q 8.6875 13.140625 8.6875 27.390625 
z
" id="DejaVuSans-85"/>
       </defs>
       <use xlink:href="#DejaVuSans-69"/>
       <use x="63.183594" xlink:href="#DejaVuSans-76"/>
       <use x="118.896484" xlink:href="#DejaVuSans-69"/>
       <use x="182.080078" xlink:href="#DejaVuSans-67"/>
       <use x="251.904297" xlink:href="#DejaVuSans-84"/>
       <use x="312.988281" xlink:href="#DejaVuSans-82"/>
       <use x="382.470703" xlink:href="#DejaVuSans-73"/>
       <use x="411.962891" xlink:href="#DejaVuSans-81"/>
       <use x="490.673828" xlink:href="#DejaVuSans-85"/>
       <use x="563.867188" xlink:href="#DejaVuSans-69"/>
      </g>
     </g>
    </g>
    <g id="xtick_4">
     <g id="line2d_4">
      <g>
       <use style="stroke:#000000;stroke-width:0.8;" x="136.630398" xlink:href="#m9f0a759953" y="224.64"/>
      </g>
     </g>
     <g id="text_4">
      <!-- HYBRIDE - ESS./ELEC. NOVC -->
      <g transform="translate(139.389773 372.122812)rotate(-90)scale(0.1 -0.1)">
       <defs>
        <path d="M 9.8125 72.90625 
L 19.671875 72.90625 
L 19.671875 43.015625 
L 55.515625 43.015625 
L 55.515625 72.90625 
L 65.375 72.90625 
L 65.375 0 
L 55.515625 0 
L 55.515625 34.71875 
L 19.671875 34.71875 
L 19.671875 0 
L 9.8125 0 
z
" id="DejaVuSans-72"/>
        <path d="M -0.203125 72.90625 
L 10.40625 72.90625 
L 30.609375 42.921875 
L 50.6875 72.90625 
L 61.28125 72.90625 
L 35.5 34.71875 
L 35.5 0 
L 25.59375 0 
L 25.59375 34.71875 
z
" id="DejaVuSans-89"/>
        <path d="M 19.671875 34.8125 
L 19.671875 8.109375 
L 35.5 8.109375 
Q 43.453125 8.109375 47.28125 11.40625 
Q 51.125 14.703125 51.125 21.484375 
Q 51.125 28.328125 47.28125 31.5625 
Q 43.453125 34.8125 35.5 34.8125 
z
M 19.671875 64.796875 
L 19.671875 42.828125 
L 34.28125 42.828125 
Q 41.5 42.828125 45.03125 45.53125 
Q 48.578125 48.25 48.578125 53.8125 
Q 48.578125 59.328125 45.03125 62.0625 
Q 41.5 64.796875 34.28125 64.796875 
z
M 9.8125 72.90625 
L 35.015625 72.90625 
Q 46.296875 72.90625 52.390625 68.21875 
Q 58.5 63.53125 58.5 54.890625 
Q 58.5 48.1875 55.375 44.234375 
Q 52.25 40.28125 46.1875 39.3125 
Q 53.46875 37.75 57.5 32.78125 
Q 61.53125 27.828125 61.53125 20.40625 
Q 61.53125 10.640625 54.890625 5.3125 
Q 48.25 0 35.984375 0 
L 9.8125 0 
z
" id="DejaVuSans-66"/>
        <path id="DejaVuSans-32"/>
        <path d="M 4.890625 31.390625 
L 31.203125 31.390625 
L 31.203125 23.390625 
L 4.890625 23.390625 
z
" id="DejaVuSans-45"/>
        <path d="M 10.6875 12.40625 
L 21 12.40625 
L 21 0 
L 10.6875 0 
z
" id="DejaVuSans-46"/>
        <path d="M 25.390625 72.90625 
L 33.6875 72.90625 
L 8.296875 -9.28125 
L 0 -9.28125 
z
" id="DejaVuSans-47"/>
        <path d="M 39.40625 66.21875 
Q 28.65625 66.21875 22.328125 58.203125 
Q 16.015625 50.203125 16.015625 36.375 
Q 16.015625 22.609375 22.328125 14.59375 
Q 28.65625 6.59375 39.40625 6.59375 
Q 50.140625 6.59375 56.421875 14.59375 
Q 62.703125 22.609375 62.703125 36.375 
Q 62.703125 50.203125 56.421875 58.203125 
Q 50.140625 66.21875 39.40625 66.21875 
z
M 39.40625 74.21875 
Q 54.734375 74.21875 63.90625 63.9375 
Q 73.09375 53.65625 73.09375 36.375 
Q 73.09375 19.140625 63.90625 8.859375 
Q 54.734375 -1.421875 39.40625 -1.421875 
Q 24.03125 -1.421875 14.8125 8.828125 
Q 5.609375 19.09375 5.609375 36.375 
Q 5.609375 53.65625 14.8125 63.9375 
Q 24.03125 74.21875 39.40625 74.21875 
z
" id="DejaVuSans-79"/>
        <path d="M 28.609375 0 
L 0.78125 72.90625 
L 11.078125 72.90625 
L 34.1875 11.53125 
L 57.328125 72.90625 
L 67.578125 72.90625 
L 39.796875 0 
z
" id="DejaVuSans-86"/>
       </defs>
       <use xlink:href="#DejaVuSans-72"/>
       <use x="75.195312" xlink:href="#DejaVuSans-89"/>
       <use x="136.279297" xlink:href="#DejaVuSans-66"/>
       <use x="204.882812" xlink:href="#DejaVuSans-82"/>
       <use x="274.365234" xlink:href="#DejaVuSans-73"/>
       <use x="303.857422" xlink:href="#DejaVuSans-68"/>
       <use x="380.859375" xlink:href="#DejaVuSans-69"/>
       <use x="444.042969" xlink:href="#DejaVuSans-32"/>
       <use x="475.830078" xlink:href="#DejaVuSans-45"/>
       <use x="511.914062" xlink:href="#DejaVuSans-32"/>
       <use x="543.701172" xlink:href="#DejaVuSans-69"/>
       <use x="606.884766" xlink:href="#DejaVuSans-83"/>
       <use x="670.361328" xlink:href="#DejaVuSans-83"/>
       <use x="733.837891" xlink:href="#DejaVuSans-46"/>
       <use x="765.625" xlink:href="#DejaVuSans-47"/>
       <use x="799.316406" xlink:href="#DejaVuSans-69"/>
       <use x="862.5" xlink:href="#DejaVuSans-76"/>
       <use x="918.212891" xlink:href="#DejaVuSans-69"/>
       <use x="981.396484" xlink:href="#DejaVuSans-67"/>
       <use x="1051.220703" xlink:href="#DejaVuSans-46"/>
       <use x="1083.007812" xlink:href="#DejaVuSans-32"/>
       <use x="1114.794922" xlink:href="#DejaVuSans-78"/>
       <use x="1189.599609" xlink:href="#DejaVuSans-79"/>
       <use x="1266.560547" xlink:href="#DejaVuSans-86"/>
       <use x="1334.96875" xlink:href="#DejaVuSans-67"/>
      </g>
     </g>
    </g>
    <g id="xtick_5">
     <g id="line2d_5">
      <g>
       <use style="stroke:#000000;stroke-width:0.8;" x="167.066761" xlink:href="#m9f0a759953" y="224.64"/>
      </g>
     </g>
     <g id="text_5">
      <!-- HYBRIDE - ESS./ELEC. OVC -->
      <g transform="translate(169.826136 364.641562)rotate(-90)scale(0.1 -0.1)">
       <use xlink:href="#DejaVuSans-72"/>
       <use x="75.195312" xlink:href="#DejaVuSans-89"/>
       <use x="136.279297" xlink:href="#DejaVuSans-66"/>
       <use x="204.882812" xlink:href="#DejaVuSans-82"/>
       <use x="274.365234" xlink:href="#DejaVuSans-73"/>
       <use x="303.857422" xlink:href="#DejaVuSans-68"/>
       <use x="380.859375" xlink:href="#DejaVuSans-69"/>
       <use x="444.042969" xlink:href="#DejaVuSans-32"/>
       <use x="475.830078" xlink:href="#DejaVuSans-45"/>
       <use x="511.914062" xlink:href="#DejaVuSans-32"/>
       <use x="543.701172" xlink:href="#DejaVuSans-69"/>
       <use x="606.884766" xlink:href="#DejaVuSans-83"/>
       <use x="670.361328" xlink:href="#DejaVuSans-83"/>
       <use x="733.837891" xlink:href="#DejaVuSans-46"/>
       <use x="765.625" xlink:href="#DejaVuSans-47"/>
       <use x="799.316406" xlink:href="#DejaVuSans-69"/>
       <use x="862.5" xlink:href="#DejaVuSans-76"/>
       <use x="918.212891" xlink:href="#DejaVuSans-69"/>
       <use x="981.396484" xlink:href="#DejaVuSans-67"/>
       <use x="1051.220703" xlink:href="#DejaVuSans-46"/>
       <use x="1083.007812" xlink:href="#DejaVuSans-32"/>
       <use x="1114.794922" xlink:href="#DejaVuSans-79"/>
       <use x="1191.755859" xlink:href="#DejaVuSans-86"/>
       <use x="1260.164062" xlink:href="#DejaVuSans-67"/>
      </g>
     </g>
    </g>
    <g id="xtick_6">
     <g id="line2d_6">
      <g>
       <use style="stroke:#000000;stroke-width:0.8;" x="197.503125" xlink:href="#m9f0a759953" y="224.64"/>
      </g>
     </g>
     <g id="text_6">
      <!-- HYBRIDE - DIE./ELEC. NOVC -->
      <g transform="translate(200.2625 370.075937)rotate(-90)scale(0.1 -0.1)">
       <use xlink:href="#DejaVuSans-72"/>
       <use x="75.195312" xlink:href="#DejaVuSans-89"/>
       <use x="136.279297" xlink:href="#DejaVuSans-66"/>
       <use x="204.882812" xlink:href="#DejaVuSans-82"/>
       <use x="274.365234" xlink:href="#DejaVuSans-73"/>
       <use x="303.857422" xlink:href="#DejaVuSans-68"/>
       <use x="380.859375" xlink:href="#DejaVuSans-69"/>
       <use x="444.042969" xlink:href="#DejaVuSans-32"/>
       <use x="475.830078" xlink:href="#DejaVuSans-45"/>
       <use x="511.914062" xlink:href="#DejaVuSans-32"/>
       <use x="543.701172" xlink:href="#DejaVuSans-68"/>
       <use x="620.703125" xlink:href="#DejaVuSans-73"/>
       <use x="650.195312" xlink:href="#DejaVuSans-69"/>
       <use x="713.378906" xlink:href="#DejaVuSans-46"/>
       <use x="745.166016" xlink:href="#DejaVuSans-47"/>
       <use x="778.857422" xlink:href="#DejaVuSans-69"/>
       <use x="842.041016" xlink:href="#DejaVuSans-76"/>
       <use x="897.753906" xlink:href="#DejaVuSans-69"/>
       <use x="960.9375" xlink:href="#DejaVuSans-67"/>
       <use x="1030.761719" xlink:href="#DejaVuSans-46"/>
       <use x="1062.548828" xlink:href="#DejaVuSans-32"/>
       <use x="1094.335938" xlink:href="#DejaVuSans-78"/>
       <use x="1169.140625" xlink:href="#DejaVuSans-79"/>
       <use x="1246.101562" xlink:href="#DejaVuSans-86"/>
       <use x="1314.509766" xlink:href="#DejaVuSans-67"/>
      </g>
     </g>
    </g>
    <g id="xtick_7">
     <g id="line2d_7">
      <g>
       <use style="stroke:#000000;stroke-width:0.8;" x="227.939489" xlink:href="#m9f0a759953" y="224.64"/>
      </g>
     </g>
     <g id="text_7">
      <!-- HYBRIDE - DIE./ELEC. OVC -->
      <g transform="translate(230.698864 362.594687)rotate(-90)scale(0.1 -0.1)">
       <use xlink:href="#DejaVuSans-72"/>
       <use x="75.195312" xlink:href="#DejaVuSans-89"/>
       <use x="136.279297" xlink:href="#DejaVuSans-66"/>
       <use x="204.882812" xlink:href="#DejaVuSans-82"/>
       <use x="274.365234" xlink:href="#DejaVuSans-73"/>
       <use x="303.857422" xlink:href="#DejaVuSans-68"/>
       <use x="380.859375" xlink:href="#DejaVuSans-69"/>
       <use x="444.042969" xlink:href="#DejaVuSans-32"/>
       <use x="475.830078" xlink:href="#DejaVuSans-45"/>
       <use x="511.914062" xlink:href="#DejaVuSans-32"/>
       <use x="543.701172" xlink:href="#DejaVuSans-68"/>
       <use x="620.703125" xlink:href="#DejaVuSans-73"/>
       <use x="650.195312" xlink:href="#DejaVuSans-69"/>
       <use x="713.378906" xlink:href="#DejaVuSans-46"/>
       <use x="745.166016" xlink:href="#DejaVuSans-47"/>
       <use x="778.857422" xlink:href="#DejaVuSans-69"/>
       <use x="842.041016" xlink:href="#DejaVuSans-76"/>
       <use x="897.753906" xlink:href="#DejaVuSans-69"/>
       <use x="960.9375" xlink:href="#DejaVuSans-67"/>
       <use x="1030.761719" xlink:href="#DejaVuSans-46"/>
       <use x="1062.548828" xlink:href="#DejaVuSans-32"/>
       <use x="1094.335938" xlink:href="#DejaVuSans-79"/>
       <use x="1171.296875" xlink:href="#DejaVuSans-86"/>
       <use x="1239.705078" xlink:href="#DejaVuSans-67"/>
      </g>
     </g>
    </g>
    <g id="xtick_8">
     <g id="line2d_8">
      <g>
       <use style="stroke:#000000;stroke-width:0.8;" x="258.375852" xlink:href="#m9f0a759953" y="224.64"/>
      </g>
     </g>
     <g id="text_8">
      <!-- HYBRIDE - ELECTRIQUE/ESS. -->
      <g transform="translate(261.135227 374.280625)rotate(-90)scale(0.1 -0.1)">
       <use xlink:href="#DejaVuSans-72"/>
       <use x="75.195312" xlink:href="#DejaVuSans-89"/>
       <use x="136.279297" xlink:href="#DejaVuSans-66"/>
       <use x="204.882812" xlink:href="#DejaVuSans-82"/>
       <use x="274.365234" xlink:href="#DejaVuSans-73"/>
       <use x="303.857422" xlink:href="#DejaVuSans-68"/>
       <use x="380.859375" xlink:href="#DejaVuSans-69"/>
       <use x="444.042969" xlink:href="#DejaVuSans-32"/>
       <use x="475.830078" xlink:href="#DejaVuSans-45"/>
       <use x="511.914062" xlink:href="#DejaVuSans-32"/>
       <use x="543.701172" xlink:href="#DejaVuSans-69"/>
       <use x="606.884766" xlink:href="#DejaVuSans-76"/>
       <use x="662.597656" xlink:href="#DejaVuSans-69"/>
       <use x="725.78125" xlink:href="#DejaVuSans-67"/>
       <use x="795.605469" xlink:href="#DejaVuSans-84"/>
       <use x="856.689453" xlink:href="#DejaVuSans-82"/>
       <use x="926.171875" xlink:href="#DejaVuSans-73"/>
       <use x="955.664062" xlink:href="#DejaVuSans-81"/>
       <use x="1034.375" xlink:href="#DejaVuSans-85"/>
       <use x="1107.568359" xlink:href="#DejaVuSans-69"/>
       <use x="1170.751953" xlink:href="#DejaVuSans-47"/>
       <use x="1204.443359" xlink:href="#DejaVuSans-69"/>
       <use x="1267.626953" xlink:href="#DejaVuSans-83"/>
       <use x="1331.103516" xlink:href="#DejaVuSans-83"/>
       <use x="1394.580078" xlink:href="#DejaVuSans-46"/>
      </g>
     </g>
    </g>
    <g id="xtick_9">
     <g id="line2d_9">
      <g>
       <use style="stroke:#000000;stroke-width:0.8;" x="288.812216" xlink:href="#m9f0a759953" y="224.64"/>
      </g>
     </g>
     <g id="text_9">
      <!-- ESSENCE + LPG -->
      <g transform="translate(291.571591 311.843125)rotate(-90)scale(0.1 -0.1)">
       <defs>
        <path d="M 46 62.703125 
L 46 35.5 
L 73.1875 35.5 
L 73.1875 27.203125 
L 46 27.203125 
L 46 0 
L 37.796875 0 
L 37.796875 27.203125 
L 10.59375 27.203125 
L 10.59375 35.5 
L 37.796875 35.5 
L 37.796875 62.703125 
z
" id="DejaVuSans-43"/>
        <path d="M 19.671875 64.796875 
L 19.671875 37.40625 
L 32.078125 37.40625 
Q 38.96875 37.40625 42.71875 40.96875 
Q 46.484375 44.53125 46.484375 51.125 
Q 46.484375 57.671875 42.71875 61.234375 
Q 38.96875 64.796875 32.078125 64.796875 
z
M 9.8125 72.90625 
L 32.078125 72.90625 
Q 44.34375 72.90625 50.609375 67.359375 
Q 56.890625 61.8125 56.890625 51.125 
Q 56.890625 40.328125 50.609375 34.8125 
Q 44.34375 29.296875 32.078125 29.296875 
L 19.671875 29.296875 
L 19.671875 0 
L 9.8125 0 
z
" id="DejaVuSans-80"/>
        <path d="M 59.515625 10.40625 
L 59.515625 29.984375 
L 43.40625 29.984375 
L 43.40625 38.09375 
L 69.28125 38.09375 
L 69.28125 6.78125 
Q 63.578125 2.734375 56.6875 0.65625 
Q 49.8125 -1.421875 42 -1.421875 
Q 24.90625 -1.421875 15.25 8.5625 
Q 5.609375 18.5625 5.609375 36.375 
Q 5.609375 54.25 15.25 64.234375 
Q 24.90625 74.21875 42 74.21875 
Q 49.125 74.21875 55.546875 72.453125 
Q 61.96875 70.703125 67.390625 67.28125 
L 67.390625 56.78125 
Q 61.921875 61.421875 55.765625 63.765625 
Q 49.609375 66.109375 42.828125 66.109375 
Q 29.4375 66.109375 22.71875 58.640625 
Q 16.015625 51.171875 16.015625 36.375 
Q 16.015625 21.625 22.71875 14.15625 
Q 29.4375 6.6875 42.828125 6.6875 
Q 48.046875 6.6875 52.140625 7.59375 
Q 56.25 8.5 59.515625 10.40625 
z
" id="DejaVuSans-71"/>
       </defs>
       <use xlink:href="#DejaVuSans-69"/>
       <use x="63.183594" xlink:href="#DejaVuSans-83"/>
       <use x="126.660156" xlink:href="#DejaVuSans-83"/>
       <use x="190.136719" xlink:href="#DejaVuSans-69"/>
       <use x="253.320312" xlink:href="#DejaVuSans-78"/>
       <use x="328.125" xlink:href="#DejaVuSans-67"/>
       <use x="397.949219" xlink:href="#DejaVuSans-69"/>
       <use x="461.132812" xlink:href="#DejaVuSans-32"/>
       <use x="492.919922" xlink:href="#DejaVuSans-43"/>
       <use x="576.708984" xlink:href="#DejaVuSans-32"/>
       <use x="608.496094" xlink:href="#DejaVuSans-76"/>
       <use x="664.208984" xlink:href="#DejaVuSans-80"/>
       <use x="724.511719" xlink:href="#DejaVuSans-71"/>
      </g>
     </g>
    </g>
    <g id="xtick_10">
     <g id="line2d_10">
      <g>
       <use style="stroke:#000000;stroke-width:0.8;" x="319.24858" xlink:href="#m9f0a759953" y="224.64"/>
      </g>
     </g>
     <g id="text_10">
      <!-- ESSENCE + CNG -->
      <g transform="translate(322.007955 314.705625)rotate(-90)scale(0.1 -0.1)">
       <use xlink:href="#DejaVuSans-69"/>
       <use x="63.183594" xlink:href="#DejaVuSans-83"/>
       <use x="126.660156" xlink:href="#DejaVuSans-83"/>
       <use x="190.136719" xlink:href="#DejaVuSans-69"/>
       <use x="253.320312" xlink:href="#DejaVuSans-78"/>
       <use x="328.125" xlink:href="#DejaVuSans-67"/>
       <use x="397.949219" xlink:href="#DejaVuSans-69"/>
       <use x="461.132812" xlink:href="#DejaVuSans-32"/>
       <use x="492.919922" xlink:href="#DejaVuSans-43"/>
       <use x="576.708984" xlink:href="#DejaVuSans-32"/>
       <use x="608.496094" xlink:href="#DejaVuSans-67"/>
       <use x="678.320312" xlink:href="#DejaVuSans-78"/>
       <use x="753.125" xlink:href="#DejaVuSans-71"/>
      </g>
     </g>
    </g>
    <g id="xtick_11">
     <g id="line2d_11">
      <g>
       <use style="stroke:#000000;stroke-width:0.8;" x="349.684943" xlink:href="#m9f0a759953" y="224.64"/>
      </g>
     </g>
     <g id="text_11">
      <!-- ESSENCE / ETHANOL -->
      <g transform="translate(352.444318 335.194687)rotate(-90)scale(0.1 -0.1)">
       <defs>
        <path d="M 34.1875 63.1875 
L 20.796875 26.90625 
L 47.609375 26.90625 
z
M 28.609375 72.90625 
L 39.796875 72.90625 
L 67.578125 0 
L 57.328125 0 
L 50.6875 18.703125 
L 17.828125 18.703125 
L 11.1875 0 
L 0.78125 0 
z
" id="DejaVuSans-65"/>
       </defs>
       <use xlink:href="#DejaVuSans-69"/>
       <use x="63.183594" xlink:href="#DejaVuSans-83"/>
       <use x="126.660156" xlink:href="#DejaVuSans-83"/>
       <use x="190.136719" xlink:href="#DejaVuSans-69"/>
       <use x="253.320312" xlink:href="#DejaVuSans-78"/>
       <use x="328.125" xlink:href="#DejaVuSans-67"/>
       <use x="397.949219" xlink:href="#DejaVuSans-69"/>
       <use x="461.132812" xlink:href="#DejaVuSans-32"/>
       <use x="492.919922" xlink:href="#DejaVuSans-47"/>
       <use x="526.611328" xlink:href="#DejaVuSans-32"/>
       <use x="558.398438" xlink:href="#DejaVuSans-69"/>
       <use x="621.582031" xlink:href="#DejaVuSans-84"/>
       <use x="682.666016" xlink:href="#DejaVuSans-72"/>
       <use x="757.861328" xlink:href="#DejaVuSans-65"/>
       <use x="826.269531" xlink:href="#DejaVuSans-78"/>
       <use x="901.074219" xlink:href="#DejaVuSans-79"/>
       <use x="979.785156" xlink:href="#DejaVuSans-76"/>
      </g>
     </g>
    </g>
   </g>
   <g id="matplotlib.axis_2">
    <g id="ytick_1">
     <g id="line2d_12">
      <defs>
       <path d="M 0 0 
L -3.5 0 
" id="m53a55df594" style="stroke:#000000;stroke-width:0.8;"/>
      </defs>
      <g>
       <use style="stroke:#000000;stroke-width:0.8;" x="30.103125" xlink:href="#m53a55df594" y="224.64"/>
      </g>
     </g>
     <g id="text_12">
      <!-- 0.0 -->
      <g transform="translate(7.2 228.439219)scale(0.1 -0.1)">
       <defs>
        <path d="M 31.78125 66.40625 
Q 24.171875 66.40625 20.328125 58.90625 
Q 16.5 51.421875 16.5 36.375 
Q 16.5 21.390625 20.328125 13.890625 
Q 24.171875 6.390625 31.78125 6.390625 
Q 39.453125 6.390625 43.28125 13.890625 
Q 47.125 21.390625 47.125 36.375 
Q 47.125 51.421875 43.28125 58.90625 
Q 39.453125 66.40625 31.78125 66.40625 
z
M 31.78125 74.21875 
Q 44.046875 74.21875 50.515625 64.515625 
Q 56.984375 54.828125 56.984375 36.375 
Q 56.984375 17.96875 50.515625 8.265625 
Q 44.046875 -1.421875 31.78125 -1.421875 
Q 19.53125 -1.421875 13.0625 8.265625 
Q 6.59375 17.96875 6.59375 36.375 
Q 6.59375 54.828125 13.0625 64.515625 
Q 19.53125 74.21875 31.78125 74.21875 
z
" id="DejaVuSans-48"/>
       </defs>
       <use xlink:href="#DejaVuSans-48"/>
       <use x="63.623047" xlink:href="#DejaVuSans-46"/>
       <use x="95.410156" xlink:href="#DejaVuSans-48"/>
      </g>
     </g>
    </g>
    <g id="ytick_2">
     <g id="line2d_13">
      <g>
       <use style="stroke:#000000;stroke-width:0.8;" x="30.103125" xlink:href="#m53a55df594" y="184.748031"/>
      </g>
     </g>
     <g id="text_13">
      <!-- 0.1 -->
      <g transform="translate(7.2 188.54725)scale(0.1 -0.1)">
       <defs>
        <path d="M 12.40625 8.296875 
L 28.515625 8.296875 
L 28.515625 63.921875 
L 10.984375 60.40625 
L 10.984375 69.390625 
L 28.421875 72.90625 
L 38.28125 72.90625 
L 38.28125 8.296875 
L 54.390625 8.296875 
L 54.390625 0 
L 12.40625 0 
z
" id="DejaVuSans-49"/>
       </defs>
       <use xlink:href="#DejaVuSans-48"/>
       <use x="63.623047" xlink:href="#DejaVuSans-46"/>
       <use x="95.410156" xlink:href="#DejaVuSans-49"/>
      </g>
     </g>
    </g>
    <g id="ytick_3">
     <g id="line2d_14">
      <g>
       <use style="stroke:#000000;stroke-width:0.8;" x="30.103125" xlink:href="#m53a55df594" y="144.856062"/>
      </g>
     </g>
     <g id="text_14">
      <!-- 0.2 -->
      <g transform="translate(7.2 148.65528)scale(0.1 -0.1)">
       <defs>
        <path d="M 19.1875 8.296875 
L 53.609375 8.296875 
L 53.609375 0 
L 7.328125 0 
L 7.328125 8.296875 
Q 12.9375 14.109375 22.625 23.890625 
Q 32.328125 33.6875 34.8125 36.53125 
Q 39.546875 41.84375 41.421875 45.53125 
Q 43.3125 49.21875 43.3125 52.78125 
Q 43.3125 58.59375 39.234375 62.25 
Q 35.15625 65.921875 28.609375 65.921875 
Q 23.96875 65.921875 18.8125 64.3125 
Q 13.671875 62.703125 7.8125 59.421875 
L 7.8125 69.390625 
Q 13.765625 71.78125 18.9375 73 
Q 24.125 74.21875 28.421875 74.21875 
Q 39.75 74.21875 46.484375 68.546875 
Q 53.21875 62.890625 53.21875 53.421875 
Q 53.21875 48.921875 51.53125 44.890625 
Q 49.859375 40.875 45.40625 35.40625 
Q 44.1875 33.984375 37.640625 27.21875 
Q 31.109375 20.453125 19.1875 8.296875 
z
" id="DejaVuSans-50"/>
       </defs>
       <use xlink:href="#DejaVuSans-48"/>
       <use x="63.623047" xlink:href="#DejaVuSans-46"/>
       <use x="95.410156" xlink:href="#DejaVuSans-50"/>
      </g>
     </g>
    </g>
    <g id="ytick_4">
     <g id="line2d_15">
      <g>
       <use style="stroke:#000000;stroke-width:0.8;" x="30.103125" xlink:href="#m53a55df594" y="104.964093"/>
      </g>
     </g>
     <g id="text_15">
      <!-- 0.3 -->
      <g transform="translate(7.2 108.763311)scale(0.1 -0.1)">
       <defs>
        <path d="M 40.578125 39.3125 
Q 47.65625 37.796875 51.625 33 
Q 55.609375 28.21875 55.609375 21.1875 
Q 55.609375 10.40625 48.1875 4.484375 
Q 40.765625 -1.421875 27.09375 -1.421875 
Q 22.515625 -1.421875 17.65625 -0.515625 
Q 12.796875 0.390625 7.625 2.203125 
L 7.625 11.71875 
Q 11.71875 9.328125 16.59375 8.109375 
Q 21.484375 6.890625 26.8125 6.890625 
Q 36.078125 6.890625 40.9375 10.546875 
Q 45.796875 14.203125 45.796875 21.1875 
Q 45.796875 27.640625 41.28125 31.265625 
Q 36.765625 34.90625 28.71875 34.90625 
L 20.21875 34.90625 
L 20.21875 43.015625 
L 29.109375 43.015625 
Q 36.375 43.015625 40.234375 45.921875 
Q 44.09375 48.828125 44.09375 54.296875 
Q 44.09375 59.90625 40.109375 62.90625 
Q 36.140625 65.921875 28.71875 65.921875 
Q 24.65625 65.921875 20.015625 65.03125 
Q 15.375 64.15625 9.8125 62.3125 
L 9.8125 71.09375 
Q 15.4375 72.65625 20.34375 73.4375 
Q 25.25 74.21875 29.59375 74.21875 
Q 40.828125 74.21875 47.359375 69.109375 
Q 53.90625 64.015625 53.90625 55.328125 
Q 53.90625 49.265625 50.4375 45.09375 
Q 46.96875 40.921875 40.578125 39.3125 
z
" id="DejaVuSans-51"/>
       </defs>
       <use xlink:href="#DejaVuSans-48"/>
       <use x="63.623047" xlink:href="#DejaVuSans-46"/>
       <use x="95.410156" xlink:href="#DejaVuSans-51"/>
      </g>
     </g>
    </g>
    <g id="ytick_5">
     <g id="line2d_16">
      <g>
       <use style="stroke:#000000;stroke-width:0.8;" x="30.103125" xlink:href="#m53a55df594" y="65.072123"/>
      </g>
     </g>
     <g id="text_16">
      <!-- 0.4 -->
      <g transform="translate(7.2 68.871342)scale(0.1 -0.1)">
       <defs>
        <path d="M 37.796875 64.3125 
L 12.890625 25.390625 
L 37.796875 25.390625 
z
M 35.203125 72.90625 
L 47.609375 72.90625 
L 47.609375 25.390625 
L 58.015625 25.390625 
L 58.015625 17.1875 
L 47.609375 17.1875 
L 47.609375 0 
L 37.796875 0 
L 37.796875 17.1875 
L 4.890625 17.1875 
L 4.890625 26.703125 
z
" id="DejaVuSans-52"/>
       </defs>
       <use xlink:href="#DejaVuSans-48"/>
       <use x="63.623047" xlink:href="#DejaVuSans-46"/>
       <use x="95.410156" xlink:href="#DejaVuSans-52"/>
      </g>
     </g>
    </g>
    <g id="ytick_6">
     <g id="line2d_17">
      <g>
       <use style="stroke:#000000;stroke-width:0.8;" x="30.103125" xlink:href="#m53a55df594" y="25.180154"/>
      </g>
     </g>
     <g id="text_17">
      <!-- 0.5 -->
      <g transform="translate(7.2 28.979373)scale(0.1 -0.1)">
       <defs>
        <path d="M 10.796875 72.90625 
L 49.515625 72.90625 
L 49.515625 64.59375 
L 19.828125 64.59375 
L 19.828125 46.734375 
Q 21.96875 47.46875 24.109375 47.828125 
Q 26.265625 48.1875 28.421875 48.1875 
Q 40.625 48.1875 47.75 41.5 
Q 54.890625 34.8125 54.890625 23.390625 
Q 54.890625 11.625 47.5625 5.09375 
Q 40.234375 -1.421875 26.90625 -1.421875 
Q 22.3125 -1.421875 17.546875 -0.640625 
Q 12.796875 0.140625 7.71875 1.703125 
L 7.71875 11.625 
Q 12.109375 9.234375 16.796875 8.0625 
Q 21.484375 6.890625 26.703125 6.890625 
Q 35.15625 6.890625 40.078125 11.328125 
Q 45.015625 15.765625 45.015625 23.390625 
Q 45.015625 31 40.078125 35.4375 
Q 35.15625 39.890625 26.703125 39.890625 
Q 22.75 39.890625 18.8125 39.015625 
Q 14.890625 38.140625 10.796875 36.28125 
z
" id="DejaVuSans-53"/>
       </defs>
       <use xlink:href="#DejaVuSans-48"/>
       <use x="63.623047" xlink:href="#DejaVuSans-46"/>
       <use x="95.410156" xlink:href="#DejaVuSans-53"/>
      </g>
     </g>
    </g>
   </g>
   <g id="patch_14">
    <path d="M 30.103125 224.64 
L 30.103125 7.2 
" style="fill:none;stroke:#000000;stroke-linecap:square;stroke-linejoin:miter;stroke-width:0.8;"/>
   </g>
   <g id="patch_15">
    <path d="M 364.903125 224.64 
L 364.903125 7.2 
" style="fill:none;stroke:#000000;stroke-linecap:square;stroke-linejoin:miter;stroke-width:0.8;"/>
   </g>
   <g id="patch_16">
    <path d="M 30.103125 224.64 
L 364.903125 224.64 
" style="fill:none;stroke:#000000;stroke-linecap:square;stroke-linejoin:miter;stroke-width:0.8;"/>
   </g>
   <g id="patch_17">
    <path d="M 30.103125 7.2 
L 364.903125 7.2 
" style="fill:none;stroke:#000000;stroke-linecap:square;stroke-linejoin:miter;stroke-width:0.8;"/>
   </g>
  </g>
 </g>
 <defs>
  <clipPath id="p709482bfbf">
   <rect height="217.44" width="334.8" x="30.103125" y="7.2"/>
  </clipPath>
 </defs>
</svg>