<?xml version="1.0" encoding="utf-8" standalone="no"?>
<!DOCTYPE svg PUBLIC "-//W3C//DTD SVG 1.1//EN"
  "http://www.w3.org/Graphics/SVG/1.1/DTD/svg11.dtd">
<!-- Created with matplotlib (https://matplotlib.org/) -->
<svg height="340.56pt" version="1.1" viewBox="0 0 381.987518 340.56" width="381.987518pt" xmlns="http://www.w3.org/2000/svg" xmlns:xlink="http://www.w3.org/1999/xlink">
 <metadata>
  <rdf:RDF xmlns:cc="http://creativecommons.org/ns#" xmlns:dc="http://purl.org/dc/elements/1.1/" xmlns:rdf="http://www.w3.org/1999/02/22-rdf-syntax-ns#">
   <cc:Work>
    <dc:type rdf:resource="http://purl.org/dc/dcmitype/StillImage"/>
    <dc:date>2020-12-08T14:58:48.592340</dc:date>
    <dc:format>image/svg+xml</dc:format>
    <dc:creator>
     <cc:Agent>
      <dc:title>Matplotlib v3.3.3, https://matplotlib.org/</dc:title>
     </cc:Agent>
    </dc:creator>
   </cc:Work>
  </rdf:RDF>
 </metadata>
 <defs>
  <style type="text/css">*{stroke-linecap:butt;stroke-linejoin:round;}</style>
 </defs>
 <g id="figure_1">
  <g id="patch_1">
   <path d="M 0 340.56 
L 381.987518 340.56 
L 381.987518 0 
L 0 0 
z
" style="fill:none;"/>
  </g>
  <g id="axes_1">
   <g id="patch_2">
    <path d="M 314.422125 170.28 
C 314.422125 147.571313 308.493082 125.251295 297.223711 105.53618 
C 285.954341 85.821065 269.730403 69.385719 250.162831 57.862065 
C 230.59526 46.338411 208.353868 40.120915 185.647084 39.826933 
C 162.9403 39.532951 140.545396 45.172547 120.686042 56.185746 
L 183.958125 170.28 
L 314.422125 170.28 
z
" style="fill:#1f77b4;"/>
   </g>
   <g id="patch_3">
    <path d="M 120.686042 56.185746 
C 93.845086 71.07066 73.098888 94.960132 62.122538 123.622256 
C 51.146188 152.284379 50.628496 183.920492 60.661169 212.926407 
L 183.958125 170.28 
L 120.686042 56.185746 
z
" style="fill:#ff7f0e;"/>
   </g>
   <g id="patch_4">
    <path d="M 60.661169 212.926407 
C 66.93834 231.07462 77.145662 247.615073 90.552352 261.363571 
C 103.959042 275.112068 120.237332 285.732485 138.221797 292.464465 
L 183.958125 170.28 
L 60.661169 212.926407 
z
" style="fill:#2ca02c;"/>
   </g>
   <g id="patch_5">
    <path d="M 138.221797 292.464465 
C 154.518327 298.564614 171.8718 301.343209 189.258259 300.636296 
C 206.644719 299.929383 223.715335 295.751145 239.462842 288.348123 
L 183.958125 170.28 
L 138.221797 292.464465 
z
" style="fill:#d62728;"/>
   </g>
   <g id="patch_6">
    <path d="M 239.462842 288.348123 
C 249.979924 283.403963 259.789402 277.076659 268.63062 269.534339 
C 277.471839 261.992019 285.265788 253.302083 291.805371 243.69544 
L 183.958125 170.28 
L 239.462842 288.348123 
z
" style="fill:#9467bd;"/>
   </g>
   <g id="patch_7">
    <path d="M 291.805371 243.69544 
C 293.23114 241.600986 294.595593 239.465443 295.896994 237.291528 
C 297.198396 235.117612 298.436193 232.906247 299.608811 230.660246 
L 183.958125 170.28 
L 291.805371 243.69544 
z
" style="fill:#8c564b;"/>
   </g>
   <g id="patch_8">
    <path d="M 299.608811 230.660246 
C 300.281949 229.370936 300.933479 228.07046 301.563129 226.759363 
C 302.192778 225.448266 302.800459 224.126731 303.385916 222.795313 
L 183.958125 170.28 
L 299.608811 230.660246 
z
" style="fill:#e377c2;"/>
   </g>
   <g id="patch_9">
    <path d="M 303.385916 222.795313 
C 303.952486 221.506846 304.498168 220.209294 305.022748 218.903167 
C 305.547327 217.597041 306.050735 216.282511 306.532774 214.960093 
L 183.958125 170.28 
L 303.385916 222.795313 
z
" style="fill:#7f7f7f;"/>
   </g>
   <g id="patch_10">
    <path d="M 306.532774 214.960093 
C 306.966607 213.769922 307.383083 212.573495 307.782069 211.371194 
C 308.181055 210.168893 308.562508 208.960844 308.926308 207.747432 
L 183.958125 170.28 
L 306.532774 214.960093 
z
" style="fill:#bcbd22;"/>
   </g>
   <g id="patch_11">
    <path d="M 308.926308 207.747432 
C 309.222736 206.758732 309.50742 205.766549 309.7803 204.771093 
C 310.05318 203.775637 310.314238 202.776977 310.563416 201.775325 
L 183.958125 170.28 
L 308.926308 207.747432 
z
" style="fill:#17becf;"/>
   </g>
   <g id="matplotlib.axis_1"/>
   <g id="matplotlib.axis_2">
    <g id="text_1">
     <!-- COUL -->
     <g transform="translate(14.798437 184.152656)rotate(-90)scale(0.1 -0.1)">
      <defs>
       <path d="M 64.40625 67.28125 
L 64.40625 56.890625 
Q 59.421875 61.53125 53.78125 63.8125 
Q 48.140625 66.109375 41.796875 66.109375 
Q 29.296875 66.109375 22.65625 58.46875 
Q 16.015625 50.828125 16.015625 36.375 
Q 16.015625 21.96875 22.65625 14.328125 
Q 29.296875 6.6875 41.796875 6.6875 
Q 48.140625 6.6875 53.78125 8.984375 
Q 59.421875 11.28125 64.40625 15.921875 
L 64.40625 5.609375 
Q 59.234375 2.09375 53.4375 0.328125 
Q 47.65625 -1.421875 41.21875 -1.421875 
Q 24.65625 -1.421875 15.125 8.703125 
Q 5.609375 18.84375 5.609375 36.375 
Q 5.609375 53.953125 15.125 64.078125 
Q 24.65625 74.21875 41.21875 74.21875 
Q 47.75 74.21875 53.53125 72.484375 
Q 59.328125 70.75 64.40625 67.28125 
z
" id="DejaVuSans-67"/>
       <path d="M 39.40625 66.21875 
Q 28.65625 66.21875 22.328125 58.203125 
Q 16.015625 50.203125 16.015625 36.375 
Q 16.015625 22.609375 22.328125 14.59375 
Q 28.65625 6.59375 39.40625 6.59375 
Q 50.140625 6.59375 56.421875 14.59375 
Q 62.703125 22.609375 62.703125 36.375 
Q 62.703125 50.203125 56.421875 58.203125 
Q 50.140625 66.21875 39.40625 66.21875 
z
M 39.40625 74.21875 
Q 54.734375 74.21875 63.90625 63.9375 
Q 73.09375 53.65625 73.09375 36.375 
Q 73.09375 19.140625 63.90625 8.859375 
Q 54.734375 -1.421875 39.40625 -1.421875 
Q 24.03125 -1.421875 14.8125 8.828125 
Q 5.609375 19.09375 5.609375 36.375 
Q 5.609375 53.65625 14.8125 63.9375 
Q 24.03125 74.21875 39.40625 74.21875 
z
" id="DejaVuSans-79"/>
       <path d="M 8.6875 72.90625 
L 18.609375 72.90625 
L 18.609375 28.609375 
Q 18.609375 16.890625 22.84375 11.734375 
Q 27.09375 6.59375 36.625 6.59375 
Q 46.09375 6.59375 50.34375 11.734375 
Q 54.59375 16.890625 54.59375 28.609375 
L 54.59375 72.90625 
L 64.5 72.90625 
L 64.5 27.390625 
Q 64.5 13.140625 57.4375 5.859375 
Q 50.390625 -1.421875 36.625 -1.421875 
Q 22.796875 -1.421875 15.734375 5.859375 
Q 8.6875 13.140625 8.6875 27.390625 
z
" id="DejaVuSans-85"/>
       <path d="M 9.8125 72.90625 
L 19.671875 72.90625 
L 19.671875 8.296875 
L 55.171875 8.296875 
L 55.171875 0 
L 9.8125 0 
z
" id="DejaVuSans-76"/>
      </defs>
      <use xlink:href="#DejaVuSans-67"/>
      <use x="69.824219" xlink:href="#DejaVuSans-79"/>
      <use x="148.535156" xlink:href="#DejaVuSans-85"/>
      <use x="221.728516" xlink:href="#DejaVuSans-76"/>
     </g>
    </g>
   </g>
   <g id="text_2">
    <!-- GRIS -->
    <g transform="translate(256.783302 49.379646)scale(0.1 -0.1)">
     <defs>
      <path d="M 59.515625 10.40625 
L 59.515625 29.984375 
L 43.40625 29.984375 
L 43.40625 38.09375 
L 69.28125 38.09375 
L 69.28125 6.78125 
Q 63.578125 2.734375 56.6875 0.65625 
Q 49.8125 -1.421875 42 -1.421875 
Q 24.90625 -1.421875 15.25 8.5625 
Q 5.609375 18.5625 5.609375 36.375 
Q 5.609375 54.25 15.25 64.234375 
Q 24.90625 74.21875 42 74.21875 
Q 49.125 74.21875 55.546875 72.453125 
Q 61.96875 70.703125 67.390625 67.28125 
L 67.390625 56.78125 
Q 61.921875 61.421875 55.765625 63.765625 
Q 49.609375 66.109375 42.828125 66.109375 
Q 29.4375 66.109375 22.71875 58.640625 
Q 16.015625 51.171875 16.015625 36.375 
Q 16.015625 21.625 22.71875 14.15625 
Q 29.4375 6.6875 42.828125 6.6875 
Q 48.046875 6.6875 52.140625 7.59375 
Q 56.25 8.5 59.515625 10.40625 
z
" id="DejaVuSans-71"/>
      <path d="M 44.390625 34.1875 
Q 47.5625 33.109375 50.5625 29.59375 
Q 53.5625 26.078125 56.59375 19.921875 
L 66.609375 0 
L 56 0 
L 46.6875 18.703125 
Q 43.0625 26.03125 39.671875 28.421875 
Q 36.28125 30.8125 30.421875 30.8125 
L 19.671875 30.8125 
L 19.671875 0 
L 9.8125 0 
L 9.8125 72.90625 
L 32.078125 72.90625 
Q 44.578125 72.90625 50.734375 67.671875 
Q 56.890625 62.453125 56.890625 51.90625 
Q 56.890625 45.015625 53.6875 40.46875 
Q 50.484375 35.9375 44.390625 34.1875 
z
M 19.671875 64.796875 
L 19.671875 38.921875 
L 32.078125 38.921875 
Q 39.203125 38.921875 42.84375 42.21875 
Q 46.484375 45.515625 46.484375 51.90625 
Q 46.484375 58.296875 42.84375 61.546875 
Q 39.203125 64.796875 32.078125 64.796875 
z
" id="DejaVuSans-82"/>
      <path d="M 9.8125 72.90625 
L 19.671875 72.90625 
L 19.671875 0 
L 9.8125 0 
z
" id="DejaVuSans-73"/>
      <path d="M 53.515625 70.515625 
L 53.515625 60.890625 
Q 47.90625 63.578125 42.921875 64.890625 
Q 37.9375 66.21875 33.296875 66.21875 
Q 25.25 66.21875 20.875 63.09375 
Q 16.5 59.96875 16.5 54.203125 
Q 16.5 49.359375 19.40625 46.890625 
Q 22.3125 44.4375 30.421875 42.921875 
L 36.375 41.703125 
Q 47.40625 39.59375 52.65625 34.296875 
Q 57.90625 29 57.90625 20.125 
Q 57.90625 9.515625 50.796875 4.046875 
Q 43.703125 -1.421875 29.984375 -1.421875 
Q 24.8125 -1.421875 18.96875 -0.25 
Q 13.140625 0.921875 6.890625 3.21875 
L 6.890625 13.375 
Q 12.890625 10.015625 18.65625 8.296875 
Q 24.421875 6.59375 29.984375 6.59375 
Q 38.421875 6.59375 43.015625 9.90625 
Q 47.609375 13.234375 47.609375 19.390625 
Q 47.609375 24.75 44.3125 27.78125 
Q 41.015625 30.8125 33.5 32.328125 
L 27.484375 33.5 
Q 16.453125 35.6875 11.515625 40.375 
Q 6.59375 45.0625 6.59375 53.421875 
Q 6.59375 63.09375 13.40625 68.65625 
Q 20.21875 74.21875 32.171875 74.21875 
Q 37.3125 74.21875 42.625 73.28125 
Q 47.953125 72.359375 53.515625 70.515625 
z
" id="DejaVuSans-83"/>
     </defs>
     <use xlink:href="#DejaVuSans-71"/>
     <use x="77.490234" xlink:href="#DejaVuSans-82"/>
     <use x="146.972656" xlink:href="#DejaVuSans-73"/>
     <use x="176.464844" xlink:href="#DejaVuSans-83"/>
    </g>
   </g>
   <g id="text_3">
    <!-- NOIR -->
    <g transform="translate(24.687417 121.715857)scale(0.1 -0.1)">
     <defs>
      <path d="M 9.8125 72.90625 
L 23.09375 72.90625 
L 55.421875 11.921875 
L 55.421875 72.90625 
L 64.984375 72.90625 
L 64.984375 0 
L 51.703125 0 
L 19.390625 60.984375 
L 19.390625 0 
L 9.8125 0 
z
" id="DejaVuSans-78"/>
     </defs>
     <use xlink:href="#DejaVuSans-78"/>
     <use x="74.804688" xlink:href="#DejaVuSans-79"/>
     <use x="153.515625" xlink:href="#DejaVuSans-73"/>
     <use x="183.007812" xlink:href="#DejaVuSans-82"/>
    </g>
   </g>
   <g id="text_4">
    <!-- BLANC -->
    <g transform="translate(47.249275 273.231303)scale(0.1 -0.1)">
     <defs>
      <path d="M 19.671875 34.8125 
L 19.671875 8.109375 
L 35.5 8.109375 
Q 43.453125 8.109375 47.28125 11.40625 
Q 51.125 14.703125 51.125 21.484375 
Q 51.125 28.328125 47.28125 31.5625 
Q 43.453125 34.8125 35.5 34.8125 
z
M 19.671875 64.796875 
L 19.671875 42.828125 
L 34.28125 42.828125 
Q 41.5 42.828125 45.03125 45.53125 
Q 48.578125 48.25 48.578125 53.8125 
Q 48.578125 59.328125 45.03125 62.0625 
Q 41.5 64.796875 34.28125 64.796875 
z
M 9.8125 72.90625 
L 35.015625 72.90625 
Q 46.296875 72.90625 52.390625 68.21875 
Q 58.5 63.53125 58.5 54.890625 
Q 58.5 48.1875 55.375 44.234375 
Q 52.25 40.28125 46.1875 39.3125 
Q 53.46875 37.75 57.5 32.78125 
Q 61.53125 27.828125 61.53125 20.40625 
Q 61.53125 10.640625 54.890625 5.3125 
Q 48.25 0 35.984375 0 
L 9.8125 0 
z
" id="DejaVuSans-66"/>
      <path d="M 34.1875 63.1875 
L 20.796875 26.90625 
L 47.609375 26.90625 
z
M 28.609375 72.90625 
L 39.796875 72.90625 
L 67.578125 0 
L 57.328125 0 
L 50.6875 18.703125 
L 17.828125 18.703125 
L 11.1875 0 
L 0.78125 0 
z
" id="DejaVuSans-65"/>
     </defs>
     <use xlink:href="#DejaVuSans-66"/>
     <use x="68.603516" xlink:href="#DejaVuSans-76"/>
     <use x="126.566406" xlink:href="#DejaVuSans-65"/>
     <use x="194.974609" xlink:href="#DejaVuSans-78"/>
     <use x="269.779297" xlink:href="#DejaVuSans-67"/>
    </g>
   </g>
   <g id="text_5">
    <!-- BLEU -->
    <g transform="translate(189.788273 316.4313)scale(0.1 -0.1)">
     <defs>
      <path d="M 9.8125 72.90625 
L 55.90625 72.90625 
L 55.90625 64.59375 
L 19.671875 64.59375 
L 19.671875 43.015625 
L 54.390625 43.015625 
L 54.390625 34.71875 
L 19.671875 34.71875 
L 19.671875 8.296875 
L 56.78125 8.296875 
L 56.78125 0 
L 9.8125 0 
z
" id="DejaVuSans-69"/>
     </defs>
     <use xlink:href="#DejaVuSans-66"/>
     <use x="68.603516" xlink:href="#DejaVuSans-76"/>
     <use x="124.316406" xlink:href="#DejaVuSans-69"/>
     <use x="187.5" xlink:href="#DejaVuSans-85"/>
    </g>
   </g>
   <g id="text_6">
    <!-- ROUGE -->
    <g transform="translate(277.09787 282.219148)scale(0.1 -0.1)">
     <use xlink:href="#DejaVuSans-82"/>
     <use x="69.482422" xlink:href="#DejaVuSans-79"/>
     <use x="148.193359" xlink:href="#DejaVuSans-85"/>
     <use x="221.386719" xlink:href="#DejaVuSans-71"/>
     <use x="298.876953" xlink:href="#DejaVuSans-69"/>
    </g>
   </g>
   <g id="text_7">
    <!-- VERT -->
    <g transform="translate(307.090881 246.752055)scale(0.1 -0.1)">
     <defs>
      <path d="M 28.609375 0 
L 0.78125 72.90625 
L 11.078125 72.90625 
L 34.1875 11.53125 
L 57.328125 72.90625 
L 67.578125 72.90625 
L 39.796875 0 
z
" id="DejaVuSans-86"/>
      <path d="M -0.296875 72.90625 
L 61.375 72.90625 
L 61.375 64.59375 
L 35.5 64.59375 
L 35.5 0 
L 25.59375 0 
L 25.59375 64.59375 
L -0.296875 64.59375 
z
" id="DejaVuSans-84"/>
     </defs>
     <use xlink:href="#DejaVuSans-86"/>
     <use x="68.408203" xlink:href="#DejaVuSans-69"/>
     <use x="131.591797" xlink:href="#DejaVuSans-82"/>
     <use x="193.824219" xlink:href="#DejaVuSans-84"/>
    </g>
   </g>
   <g id="text_8">
    <!-- BRUN -->
    <g transform="translate(313.323629 235.166674)scale(0.1 -0.1)">
     <use xlink:href="#DejaVuSans-66"/>
     <use x="68.603516" xlink:href="#DejaVuSans-82"/>
     <use x="138.085938" xlink:href="#DejaVuSans-85"/>
     <use x="211.279297" xlink:href="#DejaVuSans-78"/>
    </g>
   </g>
   <g id="text_9">
    <!-- JAUNE -->
    <g transform="translate(317.12921 226.524859)scale(0.1 -0.1)">
     <defs>
      <path d="M 9.8125 72.90625 
L 19.671875 72.90625 
L 19.671875 5.078125 
Q 19.671875 -8.109375 14.671875 -14.0625 
Q 9.671875 -20.015625 -1.421875 -20.015625 
L -5.171875 -20.015625 
L -5.171875 -11.71875 
L -2.09375 -11.71875 
Q 4.4375 -11.71875 7.125 -8.046875 
Q 9.8125 -4.390625 9.8125 5.078125 
z
" id="DejaVuSans-74"/>
     </defs>
     <use xlink:href="#DejaVuSans-74"/>
     <use x="27.742188" xlink:href="#DejaVuSans-65"/>
     <use x="96.150391" xlink:href="#DejaVuSans-85"/>
     <use x="169.34375" xlink:href="#DejaVuSans-78"/>
     <use x="244.148438" xlink:href="#DejaVuSans-69"/>
    </g>
   </g>
   <g id="text_10">
    <!-- ORANGE -->
    <g transform="translate(320.164463 218.239688)scale(0.1 -0.1)">
     <use xlink:href="#DejaVuSans-79"/>
     <use x="78.710938" xlink:href="#DejaVuSans-82"/>
     <use x="144.193359" xlink:href="#DejaVuSans-65"/>
     <use x="212.601562" xlink:href="#DejaVuSans-78"/>
     <use x="287.40625" xlink:href="#DejaVuSans-71"/>
     <use x="364.896484" xlink:href="#DejaVuSans-69"/>
    </g>
   </g>
   <g id="text_11">
    <!-- GRIS NOIR -->
    <g transform="translate(322.362518 210.979577)scale(0.1 -0.1)">
     <defs>
      <path id="DejaVuSans-32"/>
     </defs>
     <use xlink:href="#DejaVuSans-71"/>
     <use x="77.490234" xlink:href="#DejaVuSans-82"/>
     <use x="146.972656" xlink:href="#DejaVuSans-73"/>
     <use x="176.464844" xlink:href="#DejaVuSans-83"/>
     <use x="239.941406" xlink:href="#DejaVuSans-32"/>
     <use x="271.728516" xlink:href="#DejaVuSans-78"/>
     <use x="346.533203" xlink:href="#DejaVuSans-79"/>
     <use x="425.244141" xlink:href="#DejaVuSans-73"/>
     <use x="454.736328" xlink:href="#DejaVuSans-82"/>
    </g>
   </g>
  </g>
 </g>
</svg>